<?xml version="1.0" encoding="utf-8"?>
<!-- Generator: Adobe Illustrator 25.4.1, SVG Export Plug-In . SVG Version: 6.00 Build 0)  -->
<svg version="1.1" id="Layer_1" xmlns="http://www.w3.org/2000/svg" xmlns:xlink="http://www.w3.org/1999/xlink" x="0px" y="0px"
	 viewBox="0 0 384 384" style="enable-background:new 0 0 384 384;" xml:space="preserve">
<style type="text/css">
	.st0{fill:#929292;}
</style>
<path class="st0" d="M176.4,8.5L6.6,114.6h116.6c-0.4,1.6-1.2,3.1-1.5,4.8c-0.9,5.2-1.7,10.7-1.7,16.7c0,75.7,77.4,67.2,77.4,67.2
	v19.4c0,7.8,10.2,5.2,11.5,21c-5.2,0-107.3-2.9-107.3,66c0,69.2,90.2,65.8,90.2,65.8S296,380.1,296,294.6
	c0-51.1-59.7-67.8-59.7-88.3c0-20.8,45-26.9,45-75.5c0-21.2-1.5-36.5-11-47.2c-0.8-0.8-1.2-1.2-2-1.7c-0.1-0.1-0.4-0.3-0.5-0.4h2.7
	l43.9-33.2v45.1c0,0.8,0.1,1.6,0.3,2.4c-6.8,3.8-11,11-10.9,18.8v21.2c-0.1,11.7,9.2,21.4,21,21.5c11.7,0.1,21.4-9.2,21.5-21
	c0-0.3,0-0.4,0-0.7v-21.2c0.1-7.8-4.1-15-10.9-18.8c0.1-0.8,0.3-1.6,0.3-2.4V32.4l31.8-23.9H176.4z M191.1,73.2
	c6.1-0.3,12.2,1.2,18.2,4.5c4.4,2.3,8.5,5.3,12.2,9.3c7.6,7.6,13.9,18.6,17.4,31.6c8.1,30.8-2.4,60.3-24.1,66
	c-21.5,6.1-45.5-14.1-53.8-44.6c-3.7-14.9-3.2-29.3,1.1-40.8c0-0.1,0.1-0.3,0.1-0.4c0.1,0,0.1-0.1,0.3-0.1c1.2-4.5,3.2-8.6,5.6-11.9
	c4.4-6.4,10.1-10.7,17.2-12.6C187,73.6,189,73.4,191.1,73.2z M199.3,256.5c35.9-2.7,66.4,17.1,68.7,44c1.5,26.7-26.1,50.4-62.3,52.8
	c-35.9,2.4-67-17.1-68.7-43.8C135.3,282.6,163.1,259.1,199.3,256.5z"/>
</svg>
